<?xml version="1.0" encoding="UTF-8"?>
<svg width="800px" height="800px" version="1.1" viewBox="0 0 32 32" xml:space="preserve" xmlns="http://www.w3.org/2000/svg">
<style type="text/css">
	.bentblocks_een{fill:#0B1719;}
</style>
<path class="bentblocks_een" d="m25.151 13.296c0.074 8e-3 0.148 0.012 0.223 0.012 0.51 0 1.019-0.188 1.407-0.575l0.636-0.636c0.778-0.778 0.778-2.051 0-2.828l-4.685-4.685c-0.389-0.39-0.902-0.584-1.414-0.584s-1.025 0.194-1.414 0.583l-0.637 0.637c-0.444 0.444-0.625 1.047-0.563 1.629-0.074-8e-3 -0.148-0.012-0.223-0.012-0.51 0-1.019 0.188-1.407 0.575l-0.636 0.636c-0.443 0.444-0.625 1.047-0.563 1.629-0.074-8e-3 -0.148-0.012-0.223-0.012-0.51 0-1.019 0.188-1.407 0.575l-0.636 0.636c-0.444 0.444-0.625 1.047-0.563 1.629-0.074-8e-3 -0.148-0.012-0.223-0.012-0.51 0-1.019 0.188-1.407 0.575l-0.636 0.636c-0.778 0.778-0.778 2.051 0 2.828l1.635 1.635-8.415 8.419v1.414h1.414l8.417-8.417 1.635 1.635c0.389 0.389 0.902 0.583 1.414 0.583 0.513 0 1.025-0.194 1.414-0.583l0.636-0.636c0.444-0.444 0.625-1.047 0.563-1.629 0.074 8e-3 0.148 0.012 0.223 0.012 0.51 0 1.019-0.188 1.407-0.575l0.636-0.636c0.444-0.444 0.625-1.047 0.563-1.629 0.074 8e-3 0.148 0.012 0.223 0.012 0.51 0 1.019-0.188 1.407-0.575l0.636-0.636c0.444-0.445 0.625-1.049 0.563-1.63zm-1.977 0.215-0.638 0.625-2.454-0.262 0.264 2.466-0.638 0.625-2.454-0.262 0.264 2.466-0.636 0.636-4.685-4.685 0.638-0.625 2.454 0.262-0.264-2.466 0.638-0.625 2.454 0.262-0.264-2.466 0.638-0.625 2.454 0.263-0.264-2.466 0.631-0.633c1e-3 -1e-3 3e-3 -1e-3 6e-3 -1e-3v-2e-3l4.685 4.685-0.638 0.625-2.454-0.262 0.263 2.465zm-3.174 10.489h2v4h-2v-4zm4-4h4v2h-4v-2zm-12-12h-2v-4h2v4zm-4 4h-4v-2h4v2zm-2-6h-2v-2h2v2zm20 20h2v2h-2v-2zm4-12v2h-2v-2h2zm-12-10h-2v-2h2v2zm-13 13v-2h2v2h-2zm8 8h2v2h-2v-2z"/>
</svg>
