<?xml version="1.0" encoding="UTF-8"?>
<svg width="18px" height="18px" fill="#2db3c9" version="1.1" viewBox="0 0 495.4 495.4" xml:space="preserve" xmlns="http://www.w3.org/2000/svg">
	<path d="m487.08 225.51-75.08-75.08v-86.73c0-15.682-12.708-28.391-28.413-28.391-15.669 0-28.377 12.709-28.377 28.391v29.941l-55.903-55.905c-27.639-27.624-75.694-27.575-103.27 0.05l-187.73 187.72c-11.082 11.104-11.082 29.071 0 40.158 11.087 11.101 29.089 11.101 40.172 0l187.71-187.73c6.115-6.083 16.893-6.083 22.976-0.018l187.74 187.75c5.567 5.551 12.825 8.312 20.081 8.312 7.271 0 14.541-2.764 20.091-8.312 11.086-11.086 11.086-29.053-1e-3 -40.158z"/>
	<path d="m257.56 131.84c-5.454-5.451-14.285-5.451-19.723 0l-165.13 165.08c-2.607 2.606-4.085 6.164-4.085 9.877v120.4c0 28.253 22.908 51.16 51.16 51.16h81.754v-126.61h92.299v126.61h81.755c28.251 0 51.159-22.907 51.159-51.159v-120.4c0-3.713-1.465-7.271-4.085-9.877l-165.11-165.08z"/>
</svg>
